<?xml version="1.0" encoding="UTF-8"?>
<!DOCTYPE svg PUBLIC "-//W3C//DTD SVG 1.1//EN" "http://www.w3.org/Graphics/SVG/1.1/DTD/svg11.dtd">
<!-- Creator: CorelDRAW 2019 (64-Bit) -->
<svg xmlns="http://www.w3.org/2000/svg" xml:space="preserve" width="25.4mm" height="25.4mm" version="1.1" style="shape-rendering:geometricPrecision; text-rendering:geometricPrecision; image-rendering:optimizeQuality; fill-rule:evenodd; clip-rule:evenodd"
viewBox="0 0 2540 2540"
 xmlns:xlink="http://www.w3.org/1999/xlink"
 xmlns:xodm="http://www.corel.com/coreldraw/odm/2003">
 <defs>
  <style type="text/css">
   <![CDATA[
    .str0 {stroke:#2B2A29;stroke-width:20;stroke-miterlimit:22.9256}
    .fil0 {fill:#2B2A29}
   ]]>
  </style>
 </defs>
 <g id="Слой_x0020_1">
  <metadata id="CorelCorpID_0Corel-Layer"/>
  <ellipse class="fil0 str0" cx="1270.72" cy="645.68" rx="623.94" ry="608.9"/>
  <path class="fil0 str0" d="M786.31 1213.83c107.49,52.49 295,157.48 481.23,156.85 186.22,-0.62 371.18,-106.85 463.66,-159.97 92.48,-53.11 92.48,-53.11 157.46,-49.36 65,3.74 194.99,11.25 290.6,137.48 95.62,126.24 156.87,371.2 184.78,546.6 27.92,175.41 22.52,281.22 -6.23,373.71 -28.75,92.49 -80.83,171.66 -140,215.61 -59.17,43.95 -125.4,52.7 -293.51,55.83 -168.11,3.12 -438.08,0.62 -689.92,0 -251.86,-0.63 -485.58,0.62 -644.32,-3.76 -158.73,-4.37 -242.47,-14.36 -306.83,-72.49 -64.37,-58.11 -109.37,-164.36 -126.24,-281.84 -16.88,-117.49 -5.62,-246.23 11.25,-363.09 16.87,-116.86 39.37,-221.85 88.12,-315.59 48.74,-93.74 123.73,-176.23 189.35,-223.1 65.62,-46.87 121.86,-58.12 163.73,-63.75 41.87,-5.62 69.37,-5.62 176.87,46.87z"/>
 </g>
</svg>
