<?xml version="1.0" encoding="UTF-8"?>
<!DOCTYPE svg PUBLIC "-//W3C//DTD SVG 1.1//EN" "http://www.w3.org/Graphics/SVG/1.1/DTD/svg11.dtd">
<!-- Creator: CorelDRAW 2019 (64-Bit) -->
<svg xmlns="http://www.w3.org/2000/svg" xml:space="preserve" width="162.56mm" height="80.4332mm" version="1.1" style="shape-rendering:geometricPrecision; text-rendering:geometricPrecision; image-rendering:optimizeQuality; fill-rule:evenodd; clip-rule:evenodd"
viewBox="0 0 16256 8043.32"
 xmlns:xlink="http://www.w3.org/1999/xlink"
 xmlns:xodm="http://www.corel.com/coreldraw/odm/2003">
 <defs>
  <style type="text/css">
   <![CDATA[
    .str5 {stroke:black;stroke-width:33.87;stroke-miterlimit:22.9256}
    .str14 {stroke:#EB4823;stroke-width:33.87;stroke-miterlimit:22.9256}
    .str16 {stroke:#FE8B5F;stroke-width:33.87;stroke-miterlimit:22.9256}
    .str3 {stroke:black;stroke-width:8.47;stroke-miterlimit:22.9256}
    .str0 {stroke:#FE8B5F;stroke-width:8.47;stroke-miterlimit:22.9256}
    .str17 {stroke:#FFEEC3;stroke-width:8.47;stroke-miterlimit:22.9256}
    .str6 {stroke:black;stroke-width:67.73;stroke-miterlimit:22.9256}
    .str1 {stroke:black;stroke-width:42.33;stroke-miterlimit:22.9256}
    .str7 {stroke:#EB4823;stroke-width:42.33;stroke-miterlimit:22.9256}
    .str8 {stroke:#EB4823;stroke-width:42.33;stroke-miterlimit:22.9256}
    .str23 {stroke:#F4522B;stroke-width:42.33;stroke-miterlimit:22.9256}
    .str21 {stroke:#FFEEC3;stroke-width:42.33;stroke-miterlimit:22.9256}
    .str22 {stroke:white;stroke-width:42.33;stroke-miterlimit:22.9256}
    .str2 {stroke:black;stroke-width:16.93;stroke-miterlimit:22.9256}
    .str11 {stroke:#EB4823;stroke-width:16.93;stroke-miterlimit:22.9256}
    .str13 {stroke:#F4522B;stroke-width:16.93;stroke-miterlimit:22.9256}
    .str10 {stroke:#FE8B5F;stroke-width:16.93;stroke-miterlimit:22.9256}
    .str19 {stroke:#FFEEC3;stroke-width:16.93;stroke-miterlimit:22.9256}
    .str4 {stroke:black;stroke-width:25.4;stroke-miterlimit:22.9256}
    .str9 {stroke:#EB4823;stroke-width:25.4;stroke-miterlimit:22.9256}
    .str12 {stroke:#F4522B;stroke-width:25.4;stroke-miterlimit:22.9256}
    .str15 {stroke:#FE8B5F;stroke-width:25.4;stroke-miterlimit:22.9256}
    .str20 {stroke:#FFEEC3;stroke-width:25.4;stroke-miterlimit:22.9256}
    .str18 {stroke:white;stroke-width:25.4;stroke-miterlimit:22.9256}
    .fil1 {fill:none}
    .fil0 {fill:url(#id1)}
   ]]>
  </style>
    <clipPath id="id0">
     <path d="M-5880.19 -8618.59l30464.48 385.66 0 22805.4 -30464.48 -385.66 0 -22805.4z"/>
    </clipPath>
  <linearGradient id="id1" gradientUnits="userSpaceOnUse" x1="13518.21" y1="3638.8" x2="-1069.78" y2="10837.69">
   <stop offset="0" style="stop-opacity:1; stop-color:#060217"/>
   <stop offset="0.6" style="stop-opacity:1; stop-color:#1B514F"/>
   <stop offset="1" style="stop-opacity:1; stop-color:#30A187"/>
  </linearGradient>
 </defs>
 <g id="Слой_x0020_1">
  <metadata id="CorelCorpID_0Corel-Layer"/>
  <path class="fil0" d="M-64.36 -204.26l16457.09 0 0 353.49c-4.03,22.46 -4,46.05 0,68.89l0 4908.06c-0.72,82.58 -1.25,194.1 0,282l0 2801.32 -16457.09 0 0 -8413.76z"/>
  <g id="_1652600911856">
   <g style="clip-path:url(#id0)">
    <image x="-5880.19" y="-8618.59" width="30464.48" height="23191.06" xlink:href="gargantuabg_Images\gargantuabg_ImgID1.png"/>
   </g>
  </g>
  <path class="fil1 str0" d="M12735.66 -690.72c2209,-211.34 3168.58,567.08 4072.86,1464.39l-194.03 2320.95c-867.67,483.99 -2221.68,1071.2 -3611.95,1394.93 -1242.57,289.34 -10456.07,3023.77 -10780.02,2236.81 -219.97,-534.37 6185.16,-2664.97 6235,-3353.31 122.43,-1690.94 2069.14,-3852.43 4278.14,-4063.77z"/>
  <g id="_1652600877776">
   <path class="fil1 str1" d="M13444.98 587.27c1464.09,0 2695.25,963.19 3052.55,2269.66l0 1461.05c0,42.81 4.95,45.28 7.43,74.18 -347.1,1320.91 -1585.28,2298.17 -3059.98,2298.17 -1743.76,0 -3157.36,-1366.22 -3157.36,-3051.53 0,-1685.31 1413.6,-3051.53 3157.36,-3051.53z"/>
   <path class="fil1 str2" d="M13444.98 640.18c1583.6,0 2887.02,1170.84 3052.55,2674.44l0 648.36c-165.53,1503.6 -1468.95,2674.44 -3052.55,2674.44 -1695.77,0 -3070.46,-1342.52 -3070.46,-2998.62 0,-1656.1 1374.69,-2998.62 3070.46,-2998.62z"/>
   <ellipse class="fil1 str2" cx="13418.53" cy="3638.8" rx="3042.72" ry="2963.33"/>
   <ellipse class="fil1 str3" cx="13444.98" cy="3638.8" rx="3016.27" ry="2936.88"/>
   <ellipse class="fil1 str3" cx="13444.98" cy="3638.8" rx="2963.33" ry="2901.6"/>
   <ellipse class="fil1 str4" cx="13444.98" cy="3638.8" rx="2919.24" ry="2848.68"/>
   <ellipse class="fil1 str2" cx="13444.98" cy="3638.8" rx="3016.27" ry="2786.95"/>
   <ellipse class="fil1 str1" cx="13444.98" cy="3638.8" rx="2866.32" ry="2848.68"/>
   <ellipse class="fil1 str5" cx="13444.98" cy="3638.8" rx="2804.58" ry="2725.21"/>
   <ellipse class="fil1 str4" cx="13444.98" cy="3638.8" rx="2760.49" ry="2654.65"/>
   <ellipse class="fil1 str3" cx="13444.98" cy="3638.8" rx="2707.57" ry="2584.1"/>
   <ellipse class="fil1 str3" cx="13444.98" cy="3638.8" rx="2795.76" ry="2531.18"/>
   <ellipse class="fil1 str2" cx="13418.53" cy="3638.8" rx="2681.1" ry="2654.65"/>
   <ellipse class="fil1 str3" cx="13418.53" cy="3638.8" rx="2610.55" ry="2575.28"/>
   <ellipse class="fil1 str4" cx="13418.53" cy="3638.8" rx="2548.81" ry="2487.08"/>
   <ellipse class="fil1 str3" cx="13418.53" cy="3638.8" rx="2487.07" ry="2407.71"/>
   <ellipse class="fil1 str3" cx="13418.53" cy="3638.8" rx="2416.52" ry="2337.15"/>
   <ellipse class="fil1 str3" cx="13418.53" cy="3638.8" rx="2442.98" ry="2257.78"/>
   <ellipse class="fil1 str2" cx="13444.98" cy="3638.8" rx="2398.89" ry="2204.86"/>
   <ellipse class="fil1 str3" cx="13444.98" cy="3638.8" rx="2345.97" ry="2143.12"/>
   <ellipse class="fil1 str4" cx="13444.98" cy="3638.8" rx="2293.05" ry="2345.97"/>
   <ellipse class="fil1 str3" cx="13418.53" cy="3638.8" rx="2319.02" ry="2098.2"/>
   <ellipse class="fil1 str1" cx="13444.98" cy="3638.8" rx="2226.57" ry="2151.94"/>
   <ellipse class="fil1 str2" cx="13444.98" cy="3638.8" rx="2165.29" ry="2114.63"/>
   <ellipse class="fil1 str2" cx="13426.33" cy="3638.8" rx="2145.73" ry="2089.74"/>
   <ellipse class="fil1 str3" cx="13444.98" cy="3638.8" rx="2127.07" ry="2071.09"/>
   <ellipse class="fil1 str3" cx="13444.98" cy="3638.8" rx="2089.74" ry="2046.21"/>
   <ellipse class="fil1 str4" cx="13444.98" cy="3638.8" rx="2058.65" ry="2008.89"/>
   <ellipse class="fil1 str2" cx="13444.98" cy="3638.8" rx="2127.07" ry="1965.36"/>
   <ellipse class="fil1 str1" cx="13444.98" cy="3638.8" rx="2021.33" ry="2008.89"/>
   <ellipse class="fil1 str5" cx="13444.98" cy="3638.8" rx="1977.79" ry="1921.82"/>
   <ellipse class="fil1 str4" cx="13444.98" cy="3638.8" rx="1946.7" ry="1872.06"/>
   <ellipse class="fil1 str3" cx="13444.98" cy="3638.8" rx="1909.38" ry="1822.31"/>
   <ellipse class="fil1 str3" cx="13444.98" cy="3638.8" rx="1971.57" ry="1784.99"/>
   <ellipse class="fil1 str2" cx="13426.33" cy="3638.8" rx="1890.71" ry="1872.06"/>
   <ellipse class="fil1 str3" cx="13426.33" cy="3638.8" rx="1840.96" ry="1816.09"/>
   <ellipse class="fil1 str4" cx="13426.33" cy="3638.8" rx="1797.42" ry="1753.89"/>
   <ellipse class="fil1 str3" cx="13426.33" cy="3638.8" rx="1753.88" ry="1697.92"/>
   <ellipse class="fil1 str3" cx="13426.33" cy="3638.8" rx="1704.13" ry="1648.16"/>
   <ellipse class="fil1 str3" cx="13426.33" cy="3638.8" rx="1722.79" ry="1592.19"/>
   <ellipse class="fil1 str2" cx="13444.98" cy="3638.8" rx="1691.7" ry="1554.87"/>
   <ellipse class="fil1 str3" cx="13444.98" cy="3638.8" rx="1654.38" ry="1511.33"/>
   <ellipse class="fil1 str4" cx="13444.98" cy="3638.8" rx="1617.06" ry="1654.38"/>
   <ellipse class="fil1 str3" cx="13426.33" cy="3638.8" rx="1635.37" ry="1479.65"/>
   <ellipse class="fil1 str2" cx="13418.53" cy="3638.8" rx="1580.27" ry="1421.87"/>
   <ellipse class="fil1 str3" cx="13418.53" cy="3638.8" rx="1580.27" ry="1567.15"/>
   <ellipse class="fil1 str4" cx="13426.33" cy="3638.8" rx="1531.4" ry="1512.97"/>
   <ellipse class="fil1 str3" cx="13418.53" cy="3638.8" rx="1494.22" ry="1507.1"/>
   <ellipse class="fil1 str1" cx="13426.33" cy="3638.8" rx="1474.33" ry="1393.79"/>
   <ellipse class="fil1 str3" cx="13444.98" cy="3638.8" rx="1429.61" ry="1328.03"/>
   <ellipse class="fil1 str3" cx="13356.78" cy="3625.57" rx="1367.48" ry="1301.16"/>
   <ellipse class="fil1 str2" cx="13559.63" cy="3625.57" rx="1266.42" ry="1332.59"/>
   <ellipse class="fil1 str3" cx="13489.07" cy="3656.43" rx="1415.53" ry="1318.51"/>
   <ellipse class="fil1 str3" cx="13356.78" cy="3625.57" rx="1433.18" ry="1366.64"/>
   <ellipse class="fil1 str4" cx="13444.98" cy="3638.8" rx="1345.13" ry="1296.62"/>
   <ellipse class="fil1 str2" cx="13444.98" cy="3638.8" rx="1292.05" ry="1243.54"/>
   <ellipse class="fil1 str1" cx="13426.33" cy="3638.8" rx="1251.91" ry="1189.14"/>
   <ellipse class="fil1 str3" cx="13444.98" cy="3638.8" rx="1183.95" ry="1140.08"/>
   <ellipse class="fil1 str3" cx="13356.78" cy="3625.57" rx="1228.69" ry="1108.04"/>
   <ellipse class="fil1 str2" cx="13418.53" cy="3638.8" rx="1191.47" ry="1147.32"/>
   <ellipse class="fil1 str2" cx="13418.53" cy="3638.8" rx="1178.1" ry="1085.02"/>
   <ellipse class="fil1 str4" cx="13426.33" cy="3638.8" rx="1098.84" ry="1053.81"/>
   <ellipse class="fil1 str3" cx="13418.53" cy="3638.8" rx="1042.2" ry="993.16"/>
   <ellipse class="fil1 str5" cx="13418.53" cy="3638.8" rx="1022.8" ry="943.35"/>
   <ellipse class="fil1 str2" cx="13426.33" cy="3638.8" rx="962.33" ry="890.76"/>
   <ellipse class="fil1 str3" cx="13418.53" cy="3638.8" rx="926.03" ry="846.66"/>
   <ellipse class="fil1 str1" cx="13426.33" cy="3638.8" rx="905.69" ry="820.96"/>
   <ellipse class="fil1 str3" cx="13418.53" cy="3638.8" rx="840.44" ry="760.36"/>
   <ellipse class="fil1 str2" cx="13418.53" cy="3638.8" rx="800.42" ry="729.87"/>
   <ellipse class="fil1 str3" cx="13418.53" cy="3638.8" rx="776.1" ry="696.73"/>
   <ellipse class="fil1 str4" cx="13418.53" cy="3638.8" rx="748.43" ry="691.16"/>
   <ellipse class="fil1 str3" cx="13418.53" cy="3638.8" rx="705.55" ry="652.63"/>
   <ellipse class="fil1 str3" cx="13418.53" cy="3638.8" rx="682.92" ry="634.78"/>
   <ellipse class="fil1 str1" cx="13418.53" cy="3638.8" rx="642.27" ry="585.85"/>
   <ellipse class="fil1 str3" cx="13418.53" cy="3638.8" rx="583.54" ry="547.2"/>
   <ellipse class="fil1 str4" cx="13426.33" cy="3638.8" rx="550.87" ry="522.68"/>
   <ellipse class="fil1 str5" cx="13426.33" cy="3638.8" rx="510.97" ry="498.19"/>
   <ellipse class="fil1 str3" cx="13444.98" cy="3638.8" rx="462.4" ry="470.59"/>
   <ellipse class="fil1 str3" cx="13418.53" cy="3638.8" rx="464.79" ry="465.08"/>
   <ellipse class="fil1 str4" cx="13418.53" cy="3638.8" rx="425.3" ry="439.01"/>
   <ellipse class="fil1 str3" cx="13418.53" cy="3638.8" rx="392.84" ry="404.64"/>
   <ellipse class="fil1 str2" cx="13418.53" cy="3638.8" rx="356.39" ry="364.26"/>
   <ellipse class="fil1 str3" cx="13426.33" cy="3638.8" rx="328.14" ry="349.64"/>
   <ellipse class="fil1 str4" cx="13418.53" cy="3638.8" rx="290.15" ry="320.98"/>
   <ellipse class="fil1 str3" cx="13418.53" cy="3638.8" rx="325.21" ry="282.93"/>
   <ellipse class="fil1 str3" cx="13418.53" cy="3638.8" rx="252.59" ry="256.98"/>
   <ellipse class="fil1 str5" cx="13426.33" cy="3638.8" rx="214.06" ry="206.87"/>
   <ellipse class="fil1 str3" cx="13426.33" cy="3638.8" rx="176.42" ry="175.82"/>
   <ellipse class="fil1 str3" cx="13426.33" cy="3638.8" rx="164.17" ry="156.54"/>
   <ellipse class="fil1 str2" cx="13426.33" cy="3638.8" rx="149.04" ry="148.49"/>
   <ellipse class="fil1 str2" cx="13426.33" cy="3638.8" rx="127.16" ry="121.87"/>
   <ellipse class="fil1 str3" cx="13426.33" cy="3638.8" rx="109.02" ry="101.25"/>
   <ellipse class="fil1 str3" cx="13426.33" cy="3638.8" rx="91.88" ry="84.26"/>
   <ellipse class="fil1 str2" cx="13426.33" cy="3638.8" rx="77.1" ry="71.59"/>
   <ellipse class="fil1 str3" cx="13426.33" cy="3638.8" rx="55.27" ry="49.91"/>
   <ellipse class="fil1 str3" cx="13426.33" cy="3638.8" rx="27.47" ry="28.66"/>
   <ellipse class="fil1 str3" cx="13426.33" cy="3638.8" rx="41.05" ry="33.42"/>
  </g>
  <path class="fil1 str4" d="M13418.53 393.23c1351.21,0 2517.2,759.46 3059.77,1857.45 -1.02,216.72 -0.13,397.93 7.68,423.09 16.43,52.89 11.55,11.99 11.55,91.99l0 1552.22c0,57.16 8.82,42.4 8.82,114.66l0 200.82c-25.18,25.55 -41.92,63.67 -41.92,114.48 0,25.35 -0.7,84.28 -1.29,155.35 -39.22,21.15 -68.54,61.5 -69.27,118.06 -0.31,24.24 -1.1,86.73 -1.56,160.6 -573.62,1002.75 -1690.14,1680.16 -2973.78,1702.42 -1525.47,26.46 -2618.02,-686.03 -3115.25,-1962.48 -195.76,-502.53 -1272.55,34.07 -1293.03,-163.39 -11.11,-107.1 775.79,-385.73 838.62,-1066.78 164.32,-1780.88 1700.48,-3298.49 3569.66,-3298.49z"/>
  <path class="fil1 str1" d="M14024.99 4336.25c1239.12,-277.54 2010.55,-432.6 2472.54,-647.75l0 -922.74c0,-80 4.88,-39.1 -11.55,-91.99 -11.32,-36.43 -8.11,-400.02 -5.61,-724.96 -661.75,-819.72 -1819.69,-1705.49 -3054.04,-1705.49 -2020.74,0 -3649.12,1617.58 -3835.27,3439.58 -72.94,714.02 -3055.47,1507.83 -3049.2,1753.86 9.77,382.88 5791.3,-721.58 7483.13,-1100.51z"/>
  <path class="fil1 str6" d="M13694.4 4800.62c162.64,-35.06 1578.61,-312.35 2803.13,-687.59l0 -1347.27c0,-80 4.88,-39.1 -11.55,-91.99 -20.4,-65.68 6.38,-1194.61 -8.82,-1243.55 -13.36,-43.01 -6.09,-471.23 -6.09,-551.82l-24.63 -70.73c-16.62,-39.38 -13.02,-208.29 -11.29,-304.17 -835.58,-691.07 -1883.14,-1239.14 -3008.82,-1239.14 -2649.08,0 -4598.84,1784.6 -5114.09,4145.14 -248.83,1140 -5614.27,2710.68 -5486.97,3080.36 210.18,610.35 10382.45,-1584.35 10869.13,-1689.24z"/>
  <path class="fil1 str6" d="M16320.04 2448.2c57.35,-11.27 109.86,-23.39 157.94,-35.89m-82.11 3098.98c-617.49,1185.4 -1794.72,2016.92 -3145.96,2016.92 -1466.53,0 -2791.78,-784.26 -3249.68,-2179.05 -78.23,-238.31 -6094.95,1483.59 -6071.29,917.84 15.81,-378 4067.36,-1745.86 4882.63,-2096.96 467.37,-201.27 951.69,-384.2 1437.87,-548.8"/>
  <path class="fil1 str2" d="M13770.92 -1001.29c987.69,0 1883.41,452.55 2639.39,1076.19 0.57,6.37 1.39,12.69 2.52,18.9 -23.55,39.98 -28.98,92.26 -16.86,139.37l14.72 35.29c0,9.62 16.28,17.97 16.28,45.49 0.4,6.36 0.07,11.37 0,17.64 -0.38,29.29 -1.93,57.4 6.41,84.9l2.41 38.57c0,68.65 -9.42,305.06 10.65,352.61l24.63 70.73c0,80.59 -7.27,508.81 6.09,551.82 15.2,48.94 -11.58,1177.87 8.82,1243.55 16.43,52.89 11.55,11.99 11.55,91.99l0 1552.22c0,57.16 8.82,42.4 8.82,114.66l0 200.82c-19.09,19.37 -33.3,45.99 -39.07,79.87 -528.71,142.56 -1149.39,301.87 -1867.47,485.83 -2385.23,611.06 -12307,2458.18 -12644.44,1522.52 -158.48,-439.43 6055.76,-2396.71 6173.7,-3276.91 340.93,-2544.19 2642.63,-4446.06 5641.85,-4446.06z"/>
  <path class="fil1 str4" d="M16357.24 2544.56c42,-5.31 82.44,-10.93 121.5,-16.8m-60.43 3477.56c-747.99,1110.84 -2007.59,1840.39 -3435.73,1840.39 -1503.57,0 -2744.26,-1166.13 -3173.04,-1679.05 -408.49,-488.64 -7484.4,1306.9 -7508.88,506.03 -17.63,-577.08 6684.22,-2435.06 7475.59,-2699.48 170.44,-56.95 342.86,-112.33 516.49,-166.21"/>
  <path class="fil1 str6" d="M10218.37 3631.78c18.14,-4.65 55.54,-17.7 69.46,-28.24"/>
  <path class="fil1 str7" d="M13591.95 3825.64c-1170.18,263.83 -3148.73,761.95 -3396.74,496.58 -118.71,-127.03 -54.05,-418.37 -31.12,-683.42 114.63,-1324.65 1298.33,-3097.8 3234.77,-3133.08 1669.49,-30.42 2900.42,1377.62 3080.21,2043.45 1.14,67.22 3.27,112.88 6.91,124.6 15.3,49.26 12.12,17.19 11.61,77.16 -3.21,19 -8.15,36.47 -15.27,51.89 -199.59,432.27 -1427.45,692.99 -2890.37,1022.82z"/>
  <path class="fil1 str8" d="M13902.17 4337.46c1485.08,-319.73 2397.54,-705.66 2595.36,-728.49l0 709.01c0,3.32 0.03,6.38 0.09,9.24 -295.61,1375.47 -1639.8,2363.11 -3052.64,2363.11 -1632.42,0 -2882.8,-1556.79 -2703.18,-1628.16 179.62,-71.37 1675.29,-404.98 3160.37,-724.71z"/>
  <path class="fil1 str9" d="M16427.59 5217.22c-551.14,973.77 -1521.02,1643.84 -2718.27,1719.24 -1310.39,82.52 -2669.53,-838.73 -3108.1,-1494.49 -102.82,-153.74 -6021.42,1045.69 -6020.72,574.24 0.42,-283.67 1951.69,-986.74 4115.04,-1653.68"/>
  <path class="fil1 str10" d="M16464.56 6514.49c-912.17,836.2 -1484.28,1062.97 -2943.77,1209.99 -1708.82,172.14 -3444.26,-1289.39 -3539.58,-1587.91 -196.71,-616.05 -7646.09,1122.38 -7420.33,472.32 230.73,-664.37 3972.88,-1730.34 6161.77,-2272.38"/>
  <path class="fil1 str11" d="M12930.91 -44.37c-2435.61,367.77 -3397.36,2237.47 -3772.83,3672.49 -201.87,771.56 -5684.84,2279.99 -5789.38,2767.08 -127.55,594.28 8198.24,-1420.17 9954.84,-1817.06 1756.6,-396.89 2499.77,-548.34 3173.99,-840.48l0 -971.9c0,-80 4.87,-39.11 -11.55,-91.99 -16.63,-53.55 -1.91,-814.04 -4.14,-1119.49 -655.95,-933.53 -1851.45,-1855.27 -3550.93,-1598.65z"/>
  <path class="fil1 str12" d="M13328.06 -248.43c1603.13,0 2586.99,718.03 3141.18,1487.49 0.51,94.24 2.55,173.86 7.92,191.16 15.2,48.94 -11.58,1177.87 8.82,1243.55 16.43,52.89 11.55,11.99 11.55,91.99l0 688.92c-746.6,339.7 -1762.04,493.09 -3910.52,1005.84 -2148.48,512.75 -7537.39,1866.86 -7525.96,1431.01 6.28,-239.65 3812.46,-1644.97 3932.36,-2261.81 491.86,-2530.37 2766.87,-3878.15 4334.65,-3878.15z"/>
  <path class="fil1 str11" d="M12067.34 -248.43c1924.28,-568.35 3563.01,270.88 4402.68,1254.17 -1.38,156.86 -2.6,393.11 7.14,424.48 15.2,48.94 -11.58,1177.87 8.82,1243.55 16.43,52.89 11.55,11.99 11.55,91.99l0 460.82c-971.38,646.16 -3029.23,888.07 -5312.29,1473.01 -2869.13,735.1 -7550.64,2019.57 -7695.74,1621 -79.63,-218.71 5207.48,-1966.19 5293.58,-2633.85 267.4,-2073.55 2093.56,-3583.49 3284.26,-3935.17z"/>
  <path class="fil1 str13" d="M13336.88 -539.42c1350.57,88.85 2443.82,670.81 3110.64,1350.19l23.55 67.63c0,80.59 -7.27,508.81 6.09,551.82 15.2,48.94 -11.58,1177.87 8.82,1243.55 16.43,52.89 11.55,11.99 11.55,91.99l0 353.48c-767.89,438 -2113.84,716.37 -3575.17,1077.39 -1226.41,302.99 -7189.89,1927.25 -7609.75,1640.68 -240.21,-163.95 3167.56,-1852.48 3204.44,-2108.11 321.22,-2226.22 2540.75,-4418.55 4819.83,-4268.62z"/>
  <path class="fil1 str14" d="M16469.02 2804.29l28.51 13.55m-57.91 3445.21c-883.28,894.22 -1977.91,1253.69 -3053.3,1262.33 -1355.63,10.9 -2500.54,-710.24 -3039.63,-1453.82 -654.71,-903.05 -7517.44,793.89 -7520.72,420.2 -1.77,-202.12 2049.39,-1073.76 4196.27,-1999.43 539.34,-232.54 924.3,-500.81 1471.76,-724.99m7973.05 -953.55l1.97 -9.5"/>
  <path class="fil1 str15" d="M13462.9 -513.08c1260.51,82.93 2296.86,595.41 2971.61,1215.72 1.45,48.05 4.86,88.27 11.93,105.03l24.63 70.73c0,80.59 -7.27,508.81 6.09,551.82 15.2,48.94 -11.58,1177.87 8.82,1243.55 16.43,52.89 11.55,11.99 11.55,91.99l0 447.72c-783.93,399.64 -2064.78,667.48 -3449.15,1009.49 -1226.41,302.98 -6940.21,1739.29 -7499.25,1559.82 -394.79,-126.74 3057.06,-1771.63 3093.94,-2027.25 321.21,-2226.22 2540.75,-4418.55 4819.83,-4268.62z"/>
  <path class="fil1 str15" d="M13252.5 -329.52c1678.9,0 2678.65,787.5 3216.94,1596.85 0.76,81.53 2.89,147.35 7.72,162.89 15.2,48.94 -11.58,1177.87 8.82,1243.55 16.43,52.89 11.55,11.99 11.55,91.99l0 571.99c-723.64,358.34 -1807.22,521.68 -3986.08,1041.68 -2178.86,520 -7755.87,2019.66 -7744.44,1583.8 6.29,-239.65 4030.94,-1797.75 4150.84,-2414.6 491.87,-2530.37 2766.87,-3878.15 4334.65,-3878.15z"/>
  <path class="fil1 str16" d="M12858.89 -88.21c-2435.61,367.77 -3397.37,2237.47 -3772.83,3672.49 -201.87,771.55 -5941.15,2384.95 -6045.69,2872.03 -127.54,594.28 8497.23,-1519.61 10297.5,-1930.46 1800.27,-410.85 2501.29,-573.88 3159.66,-887.05l0 -873.04c0,-80 4.87,-39.1 -11.55,-91.99 -15.6,-50.21 -3.61,-721.94 -3.9,-1057.34 -638.32,-968.05 -1859.39,-1970.97 -3623.19,-1704.64z"/>
  <path class="fil1 str10" d="M12904.15 31.57c-2435.61,367.77 -3397.36,2237.47 -3772.83,3672.49 -201.87,771.56 -5788.23,2228.58 -5892.78,2715.67 -127.55,594.29 8476.48,-1249.88 10187.79,-1727.12 1711.31,-477.24 2402.3,-692.58 3071.2,-992.18l0 -934.67c0,-80 4.88,-39.1 -11.55,-91.99 -14.82,-47.72 -4.75,-656.53 -3.95,-1004.8 -649.88,-946.54 -1854.89,-1897.57 -3577.88,-1637.4z"/>
  <path class="fil1 str11" d="M16420.46 6413.08c-864.27,932.93 -1879.79,1137.01 -3022,1219.78 -1652.85,119.77 -3254.5,-1301.27 -3349.81,-1599.78 -196.7,-616.04 -7646.08,1122.37 -7420.33,472.32 240.92,-693.73 4117.03,-1803.5 6219.01,-2315.67"/>
  <path class="fil1 str16" d="M16524.28 5979.96c-698.52,995.4 -2306.54,1464.76 -3100.61,1442.98 -1513.32,-41.51 -2423.19,-837.61 -3015.68,-1455.54 -630.64,-657.7 -7423.59,1213.05 -7703.08,596.84 -162.71,-358.74 2139.13,-1010.51 4469.73,-2024.24 428.39,-186.33 1084.88,-481.57 1342.41,-810.8"/>
  <path class="fil1 str15" d="M16453.75 5395.27c-586,999.09 -1758.92,1667.39 -2863.55,1669.25 -1312.99,2.22 -2559.28,-799.04 -2997.86,-1454.8 -102.82,-153.75 -6190.62,900.4 -6189.92,428.95 0.38,-258.07 1706.29,-785.26 3675.26,-1352.89"/>
  <path class="fil1 str17" d="M13038.23 470.89c1595.98,-186.68 2919.72,986.94 3440,1793.1 -0.92,210.8 0.1,385.14 7.75,409.78 16.43,52.89 11.55,11.99 11.55,91.99l0 359.67c-527.49,355.87 -1926.61,633.06 -3207.78,931.89 -1638.39,382.15 -4225.39,886.22 -3508.45,250.52 41.54,-36.84 270.98,-221.01 265.45,-557.8 -25.19,-1534.31 1430.06,-3096.51 2991.48,-3279.15z"/>
  <path class="fil1 str18" d="M13044.39 556.34c1699.52,-198.79 3077.07,1211.74 3434.22,1960.69 0.98,84.74 3.18,143.24 7.37,156.74 16.43,52.89 11.55,11.99 11.55,91.99l0 216.9c-340.05,399.69 -1845.92,692.69 -3212.05,1011.34 -1570.43,366.3 -4050.12,849.46 -3362.92,240.13 39.81,-35.31 259.74,-211.84 254.44,-534.66 -24.15,-1470.67 1370.74,-2968.07 2867.39,-3143.13z"/>
  <path class="fil1 str19" d="M13031.58 378.63c1534.42,-179.48 2827.82,844.47 3448.05,1665.34 -2.25,297.13 -3.87,596.9 6.35,629.8 16.43,52.89 11.55,11.99 11.55,91.99l0 473.37c-634.47,330.86 -1970.94,599.15 -3203.16,886.56 -1711.78,399.26 -4414.64,925.91 -3665.59,261.74 43.4,-38.49 283.11,-230.91 277.34,-582.78 -26.32,-1603.03 1494.11,-3235.2 3125.46,-3426.02z"/>
  <path class="fil1 str18" d="M12930.84 322.17c1615.27,-190.21 2863.94,576.89 3547.76,1870.91 -1.95,274.54 -2.09,450.18 7.38,480.69 16.43,52.88 11.55,11.99 11.55,91.99l0 635.93c-597.34,290.32 -1879.43,600.22 -3369.5,883.39 -1552.89,295.1 -3842.2,915.33 -4333.19,579.18 -168.88,-115.62 890.94,-452.17 900.79,-924.17 35.01,-1677.92 1619.94,-3427.71 3235.21,-3617.92z"/>
  <path class="fil1 str17" d="M13444.98 108.84c1796.38,126.62 2667.35,867.51 3036.61,1664.79 -2.03,353.33 -9.03,856.92 4.39,900.14 16.43,52.89 11.55,11.99 11.55,91.99l0 626.75c-521.76,540.76 -1923.67,625.57 -3503.85,1042.17 -1704.21,449.3 -4998.69,858.28 -4705.63,510.22 100.25,-119.07 1149.62,-608.38 1214.87,-1280.43 105.1,-1082.4 1327.71,-3739.9 3942.06,-3555.63z"/>
  <path class="fil1 str20" d="M13352.9 123.33c1837.01,44.74 2610.38,1095.32 3205.1,1795.89 1.72,74.56 2.11,143.02 -5.63,173.11l-0.71 227.38c-35.62,166.14 -76.16,320.32 -65.68,354.06 16.42,52.88 11.55,12 11.55,91.99l0 843.21c-738.61,384.77 -2006.21,495.39 -3540.68,896.96 -1790.04,468.44 -5250.47,894.87 -4942.65,531.97 105.3,-124.15 1069.38,-662.04 1276.06,-1335.02 502.47,-1636.11 2182.34,-3625.35 4062.64,-3579.55z"/>
  <path class="fil1 str21" d="M13465.23 -51.6c1794.53,101.05 2659.25,1162.17 3011.93,1481.82 11.39,192.26 -30.49,1116.89 8.82,1243.55 16.4,52.86 11.55,12.03 11.55,91.99l0 1053.73c-912.44,301.53 -2029.99,565.18 -3610.24,935.57 -1897.33,444.71 -5578.63,757.83 -5253.63,390.49 111.16,-125.64 1496.85,-949.28 1655.01,-1644.49 399.36,-1755.45 2236.14,-3661.93 4176.56,-3552.66z"/>
  <path class="fil1 str20" d="M13287.66 197.79c1654.15,0 2631.52,932.42 3192.8,1738.81 -2.51,327.98 -5.94,700.28 5.52,737.17 16.43,52.89 11.55,11.99 11.55,91.99l0 785.17c-690.28,315.83 -2062.23,529.34 -3588.92,905.8 -1486.4,366.53 -5557.68,1227.88 -5787.35,892.39 -156.91,-229.21 2285.62,-592.07 2403.76,-1467.83 291.2,-2158.56 2108.49,-3683.5 3762.64,-3683.5z"/>
  <path class="fil1 str22" d="M16429.19 4929.34c-383.05,879.48 -1368.96,1736.55 -2625.08,1905.18 -1240.66,113.22 -2549.6,-679.79 -3202.89,-1392.55 -472.58,-515.6 -4112.96,424.22 -3906.86,-15.28 112.48,-239.87 819.77,-523.15 1826.33,-895.28"/>
  <path class="fil1 str20" d="M16488.99 5582.33c-606.17,826.07 -1553.56,1581.33 -3062.34,1581.25 -1212.47,-76.6 -2133.97,-597.9 -2885.38,-1420.93 -484.34,-530.5 -3659.57,34.75 -4219.76,-123.5 -323.34,-91.34 449.56,-486.3 2422.09,-1317.54"/>
  <path class="fil1 str19" d="M8195.41 4537.49c-1417.65,457.3 -2506.01,946.83 -2323.83,1212.11 264.44,385.08 4300.35,-464.46 4564.16,42.28 261.49,502.29 1759.58,1609.56 3298.71,1495.99 1061.39,-78.32 2221.4,-674.17 2769,-1493.61"/>
  <path class="fil1 str15" d="M8724.8 5784.85c1684.75,-253.78 3369.5,-507.57 4664.95,-777.43 1295.46,-269.85 2201.62,-555.78 3107.78,-841.71"/>
  <path class="fil1 str9" d="M10523.27 5428.26c1088.4,-178.5 2176.8,-357 3172.51,-585.07 995.71,-228.06 1898.73,-505.68 2801.75,-783.31"/>
  <path class="fil1 str11" d="M9270.24 5903.67c308.19,1.05 616.37,2.11 1535.7,-139.98 919.34,-142.08 2449.83,-427.29 3501.75,-656.26 1051.93,-228.96 1625.29,-401.67 2198.66,-574.38"/>
  <path class="fil1 str19" d="M10087.8 5643.67c127.52,32.15 255.04,64.29 898.84,-32.16 643.8,-96.44 1803.89,-321.48 2809.32,-548.87 1005.44,-227.38 1856.22,-457.11 2707.01,-686.84"/>
  <path class="fil1 str20" d="M9790.72 5500.41c187.81,11.91 375.62,23.82 693.15,-8.6 317.54,-32.41 764.81,-109.14 1489.6,-252.09 724.79,-142.94 1727.1,-352.09 2527.36,-550.91 800.27,-198.81 1398.49,-387.3 1996.7,-575.78"/>
  <path class="fil1 str22" d="M10481.53 5363.45c249.3,55.5 498.59,111.01 1080.97,45.39 582.38,-65.62 1497.84,-252.36 2380.05,-467.24 882.21,-214.88 1731.16,-457.9 2580.12,-700.92"/>
  <path class="fil1 str15" d="M9726.21 5684.68c205.41,29.48 410.83,58.95 722.82,46.82 311.99,-12.13 730.55,-65.88 1387.89,-179.51 657.34,-113.63 1553.46,-287.16 2371.49,-474.54 818.03,-187.37 1557.99,-388.59 2297.94,-589.82"/>
  <path class="fil1 str15" d="M9894.11 5710.56c213.92,-12.78 427.84,-25.56 874.14,-91.91 446.3,-66.34 1124.99,-186.26 1761.66,-314.87 636.67,-128.6 1231.34,-265.9 1885.6,-431.65 654.27,-165.75 1368.15,-359.95 2082.02,-554.15"/>
  <path class="fil1 str14" d="M9556.21 5814.64c266.35,7.74 532.7,15.48 1176.42,-85.97 643.72,-101.45 1664.81,-312.08 2551.57,-509.91 886.77,-197.83 1639.21,-382.84 2153.84,-511.73 514.64,-128.88 791.48,-201.64 1068.31,-274.39"/>
  <path class="fil1 str15" d="M8640.32 5654.14c565.28,-53.12 1130.55,-106.24 1973.13,-241.4 842.58,-135.16 1962.45,-352.35 2868.62,-561.07 906.18,-208.71 1598.66,-408.93 2065.61,-547.57 466.96,-138.64 708.41,-215.68 949.85,-292.73"/>
  <path class="fil1 str20" d="M9068.11 5501.96c279.85,1.8 559.71,3.61 1013.48,-53.65 453.78,-57.25 1081.49,-173.55 1778.03,-307.08 696.55,-133.52 1461.93,-284.26 2246.39,-483.51 784.46,-199.24 1587.99,-446.99 2391.52,-694.74"/>
  <path class="fil1 str23" d="M13963.82 4600.85c1397.89,-360.12 2111.08,-535.63 2533.71,-693.07l0 -1142.02c0,-80 4.86,-39.12 -11.55,-91.99 -9.89,-31.87 -11.52,-622.92 -9.38,-910.83 -493.17,-633.13 -1163.92,-1584.7 -2908.15,-1707.01 -1938.18,-135.92 -3747.26,1659.93 -4129.14,3391.57 -207.2,939.56 -3685.55,1856.38 -3351.28,2184.3 334.14,327.81 5917.98,-526.57 7875.79,-1030.95z"/>
  <path class="fil1 str9" d="M13418.53 393.23c1327.8,0 2642.73,1006.46 3133.24,1892.89l-2.22 714.46c-23.44,39.43 -27.1,90.76 -0.43,137.64l-0.85 272.94c-462.08,426.44 -1649.87,472.63 -2965.92,729.06 -1727.46,336.58 -4444.99,918.87 -4411.81,598.54 17.98,-173.62 585.95,-181.14 605.71,-765.55 84.25,-2490.47 2305.55,-3579.98 3642.28,-3579.98z"/>
  <path class="fil1 str9" d="M13196.9 250.3c1857.87,0.27 2927.49,715.46 3359.93,1622.82 2.4,91.14 4.86,182.98 -4.46,219.21l-2.82 908.25c-23.44,39.43 -27.1,90.76 -0.43,137.64l-1.02 328.53 0.28 8.17c-474.13,463.38 -1395.39,321.74 -2855.45,791.46 -1460.06,469.72 -5142.99,906.36 -5129.99,657.79 10.99,-210.02 1065.83,-536.75 1033.12,-893.94 -143.09,-1562.19 1806.76,-3780.2 3600.84,-3779.93z"/>
  <path class="fil1 str10" d="M13185.4 -204.26c2417.96,-13.81 2970.9,1188.26 3372.82,2243.3 -0.92,22.62 -2.72,41.11 -5.85,53.29l-2.82 908.25c-23.44,39.43 -27.1,90.76 -0.43,137.64l-1.02 328.53c0.47,36.32 8.82,26.72 8.82,97.02 0,45.74 -4.27,171.11 -0.64,255.34 -694.56,460.67 -2157.68,761.08 -3794.19,1113.46 -2561.38,551.52 -4957.23,413.02 -4895.72,215.63 50.57,-162.28 1160.38,-733.22 1193.98,-1082.94 165.98,-1727.54 1970.4,-4257.2 4125.05,-4269.52z"/>
  <path class="fil1 str9" d="M9439.31 3447.5c-21.84,164.03 -43.67,328.05 -160.95,526.72 -117.27,198.66 -329.99,431.95 -620.07,599.36 -290.08,167.41 -657.53,268.94 -993.02,392.48 -335.49,123.54 -639.03,269.1 -733.01,355.08 -93.98,85.99 21.58,112.41 195.62,129.4 174.04,16.99 406.54,24.56 751.04,10.23 344.49,-14.33 800.97,-50.56 1312.54,-128.25 511.57,-77.68 1078.24,-196.82 1644.9,-315.96"/>
 </g>
</svg>
